<svg width="85" height="41" viewBox="0 0 85 41" fill="none" xmlns="http://www.w3.org/2000/svg">
<g clip-path="url(#clip0_27_529)">
<path d="M38.6453 20.0557C38.6453 20.5861 38.4346 21.0948 38.0595 21.4699C37.6844 21.8449 37.1757 22.0557 36.6453 22.0557C36.1148 22.0557 35.6061 21.8449 35.2311 21.4699C34.856 21.0948 34.6453 20.5861 34.6453 20.0557C34.6453 19.5252 34.856 19.0165 35.2311 18.6415C35.6061 18.2664 36.1148 18.0557 36.6453 18.0557C37.1757 18.0557 37.6844 18.2664 38.0595 18.6415C38.4346 19.0165 38.6453 19.5252 38.6453 20.0557ZM44.6453 20.0557C44.6453 20.5861 44.4345 21.0948 44.0595 21.4699C43.6844 21.8449 43.1757 22.0557 42.6453 22.0557C42.1148 22.0557 41.6061 21.8449 41.2311 21.4699C40.856 21.0948 40.6453 20.5861 40.6453 20.0557C40.6453 19.5252 40.856 19.0165 41.2311 18.6415C41.6061 18.2664 42.1148 18.0557 42.6453 18.0557C43.1757 18.0557 43.6844 18.2664 44.0595 18.6415C44.4345 19.0165 44.6453 19.5252 44.6453 20.0557ZM48.6453 22.0557C49.1757 22.0557 49.6844 21.8449 50.0595 21.4699C50.4345 21.0948 50.6453 20.5861 50.6453 20.0557C50.6453 19.5252 50.4345 19.0165 50.0595 18.6415C49.6844 18.2664 49.1757 18.0557 48.6453 18.0557C48.1148 18.0557 47.6061 18.2664 47.2311 18.6415C46.856 19.0165 46.6453 19.5252 46.6453 20.0557C46.6453 20.5861 46.856 21.0948 47.2311 21.4699C47.6061 21.8449 48.1148 22.0557 48.6453 22.0557Z" fill="#5B6871"/>
</g>
<defs>
<clipPath id="clip0_27_529">
<rect x="12.6453" y="8.05566" width="60" height="24" rx="6" fill="white"/>
</clipPath>
</defs>
</svg>
