<svg width="61" height="25" viewBox="0 0 61 25" fill="none" xmlns="http://www.w3.org/2000/svg">
<g clip-path="url(#clip0_27_210)">
<path d="M26.6453 12.9443C26.6453 13.4748 26.4346 13.9835 26.0595 14.3585C25.6844 14.7336 25.1757 14.9443 24.6453 14.9443C24.1148 14.9443 23.6061 14.7336 23.2311 14.3585C22.856 13.9835 22.6453 13.4748 22.6453 12.9443C22.6453 12.4139 22.856 11.9052 23.2311 11.5301C23.6061 11.1551 24.1148 10.9443 24.6453 10.9443C25.1757 10.9443 25.6844 11.1551 26.0595 11.5301C26.4346 11.9052 26.6453 12.4139 26.6453 12.9443ZM32.6453 12.9443C32.6453 13.4748 32.4345 13.9835 32.0595 14.3585C31.6844 14.7336 31.1757 14.9443 30.6453 14.9443C30.1148 14.9443 29.6061 14.7336 29.2311 14.3585C28.856 13.9835 28.6453 13.4748 28.6453 12.9443C28.6453 12.4139 28.856 11.9052 29.2311 11.5301C29.6061 11.1551 30.1148 10.9443 30.6453 10.9443C31.1757 10.9443 31.6844 11.1551 32.0595 11.5301C32.4345 11.9052 32.6453 12.4139 32.6453 12.9443ZM36.6453 14.9443C37.1757 14.9443 37.6844 14.7336 38.0595 14.3585C38.4345 13.9835 38.6453 13.4748 38.6453 12.9443C38.6453 12.4139 38.4345 11.9052 38.0595 11.5301C37.6844 11.1551 37.1757 10.9443 36.6453 10.9443C36.1148 10.9443 35.6061 11.1551 35.2311 11.5301C34.856 11.9052 34.6453 12.4139 34.6453 12.9443C34.6453 13.4748 34.856 13.9835 35.2311 14.3585C35.6061 14.7336 36.1148 14.9443 36.6453 14.9443Z" fill="#5B6871"/>
</g>
<defs>
<clipPath id="clip0_27_210">
<rect x="0.645264" y="0.944336" width="60" height="24" rx="6" fill="white"/>
</clipPath>
</defs>
</svg>
